<?xml version="1.0" standalone="no"?>
<!DOCTYPE svg PUBLIC "-//W3C//DTD SVG 20010904//EN"
 "http://www.w3.org/TR/2001/REC-SVG-20010904/DTD/svg10.dtd">
<svg version="1.0" xmlns="http://www.w3.org/2000/svg"
 width="512.000000pt" height="512.000000pt" viewBox="0 0 512.000000 512.000000"
 preserveAspectRatio="xMidYMid meet">

<g transform="translate(0.000000,512.000000) scale(0.100000,-0.100000)"
fill="#B25932" stroke="none">
<path d="M2475 5105 c-957 -17 -1167 -31 -1350 -89 -242 -76 -351 -215 -414
-527 -95 -462 -201 -1262 -245 -1839 -34 -442 -60 -1075 -53 -1265 7 -170 47
-437 78 -520 46 -124 137 -225 259 -289 121 -63 253 -94 513 -121 l57 -6 0
-174 c0 -192 6 -218 53 -234 51 -18 89 9 156 111 l58 89 33 -58 c51 -91 105
-159 139 -173 44 -18 90 -3 118 39 22 32 23 44 23 202 l0 168 453 -6 c491 -6
858 5 1287 37 146 11 375 23 510 26 266 6 351 15 420 45 115 51 164 157 105
228 -38 44 -83 55 -228 56 -148 0 -137 -6 -194 112 -80 165 -77 357 7 522 48
95 73 121 158 162 133 64 222 179 263 336 41 160 36 379 -16 652 -68 360 -318
1568 -340 1645 -15 49 -46 132 -69 185 -24 53 -62 161 -85 241 -23 80 -55 173
-73 207 -55 112 -164 194 -300 229 -88 23 -426 25 -1323 9z m1295 -75 c133
-30 236 -115 282 -232 40 -102 42 -113 12 -126 -86 -40 -176 10 -189 103 -10
79 -28 118 -64 142 -42 29 -89 29 -173 3 -99 -31 -155 -24 -201 28 -21 23 -39
80 -30 95 8 13 291 3 363 -13z m-920 -597 c0 -16 5 -107 10 -203 7 -137 12
-177 24 -186 9 -6 108 -16 228 -23 117 -7 216 -16 219 -19 7 -7 59 -272 59
-299 0 -14 -25 -15 -243 -8 -218 6 -244 5 -256 -9 -12 -14 -10 -83 13 -449 14
-238 26 -444 26 -459 l0 -28 -224 0 -224 0 4 38 c2 20 20 233 40 472 34 413
35 435 18 447 -13 10 -79 13 -266 13 -192 0 -248 3 -248 13 0 6 9 71 21 143
l22 132 243 7 c162 5 247 11 253 19 8 9 31 305 31 396 l0 30 125 0 125 0 0
-27z m1763 -1965 c4 -13 11 -75 18 -138 19 -187 0 -361 -51 -459 -18 -37 -23
-39 -87 -51 -197 -35 -713 -83 -728 -69 -10 10 17 80 42 110 52 62 130 73 298
43 164 -29 259 -8 336 73 74 77 94 164 65 286 -28 119 -16 180 42 211 39 22
59 19 65 -6z m-137 -747 c-28 -31 -111 -71 -191 -91 -53 -14 -143 -23 -287
-31 -229 -12 -228 -12 -228 43 0 31 -11 29 270 48 91 7 219 20 285 30 66 9
131 18 144 19 23 1 23 0 7 -18z m-2406 -175 c427 -29 877 -39 1385 -32 270 3
553 11 629 16 77 5 141 9 142 7 1 -1 -13 -34 -32 -72 -48 -99 -68 -183 -68
-295 0 -111 20 -196 68 -295 19 -38 32 -73 30 -77 -3 -4 -20 -8 -39 -8 -19 0
-130 -13 -247 -29 -423 -59 -1149 -111 -1775 -127 l-261 -7 0 303 c0 349 1
344 -88 368 -78 21 -353 -2 -416 -34 -37 -19 -45 -55 -58 -269 -22 -366 -19
-345 -49 -345 -42 1 -160 19 -231 36 -87 22 -196 73 -245 117 -121 105 -140
295 -44 447 90 144 313 263 569 305 102 17 391 13 730 -9z m2530 -829 c38 -19
37 -52 -2 -91 -52 -52 -116 -67 -308 -73 -161 -5 -165 -5 -185 17 -22 24 -27
112 -8 131 26 26 456 40 503 16z"/>
</g>
</svg>
